<?xml version="1.0" standalone="no"?>
<!DOCTYPE svg PUBLIC "-//W3C//DTD SVG 20010904//EN"
 "http://www.w3.org/TR/2001/REC-SVG-20010904/DTD/svg10.dtd">
<svg version="1.0" xmlns="http://www.w3.org/2000/svg"
 width="488.000000pt" height="488.000000pt" viewBox="0 0 488.000000 488.000000"
 preserveAspectRatio="xMidYMid meet">
<metadata>
Created by potrace 1.14, written by Peter Selinger 2001-2017
</metadata>
<g transform="translate(0.000000,488.000000) scale(0.100000,-0.100000)"
fill="#000000" stroke="none">
<path d="M2080 4840 l0 -40 -40 0 -40 0 0 -40 0 -40 -40 0 -40 0 0 -200 0
-200 40 0 40 0 0 -160 0 -160 40 0 40 0 0 -120 0 -120 40 0 40 0 0 -200 0
-200 -40 0 -40 0 0 -40 0 -40 -40 0 -40 0 0 -40 0 -40 40 0 40 0 0 -40 0 -40
40 0 40 0 0 -40 0 -40 -40 0 -40 0 0 -40 0 -40 -80 0 -80 0 0 -40 0 -40 80 0
80 0 0 -40 0 -40 160 0 160 0 0 -80 0 -80 -40 0 -40 0 0 -80 0 -80 -40 0 -40
0 0 -120 0 -120 -40 0 -40 0 0 -120 0 -120 -40 0 -40 0 0 -160 0 -160 -40 0
-40 0 0 40 0 40 -80 0 -80 0 0 40 0 40 -40 0 -40 0 0 40 0 40 -40 0 -40 0 0
80 0 80 -40 0 -40 0 0 40 0 40 -40 0 -40 0 0 120 0 120 -40 0 -40 0 0 160 0
160 -40 0 -40 0 0 160 0 160 -40 0 -40 0 0 80 0 80 -40 0 -40 0 0 40 0 40 -40
0 -40 0 0 80 0 80 -40 0 -40 0 0 40 0 40 -40 0 -40 0 0 -40 0 -40 -40 0 -40 0
0 -80 0 -80 -40 0 -40 0 0 -80 0 -80 -40 0 -40 0 0 -160 0 -160 -40 0 -40 0 0
-240 0 -240 40 0 40 0 0 -120 0 -120 40 0 40 0 0 -80 0 -80 40 0 40 0 0 -80 0
-80 40 0 40 0 0 -40 0 -40 40 0 40 0 0 -40 0 -40 40 0 40 0 0 -40 0 -40 40 0
40 0 0 -40 0 -40 40 0 40 0 0 -40 0 -40 80 0 80 0 0 -40 0 -40 40 0 40 0 0
-40 0 -40 -40 0 -40 0 0 -200 0 -200 40 0 40 0 0 -40 0 -40 40 0 40 0 0 -40 0
-40 40 0 40 0 0 -40 0 -40 -80 0 -80 0 0 -40 0 -40 -40 0 -40 0 0 -40 0 -40
-40 0 -40 0 0 -40 0 -40 -40 0 -40 0 0 -120 0 -120 40 0 40 0 0 -40 0 -40 80
0 80 0 0 40 0 40 40 0 40 0 0 40 0 40 80 0 80 0 0 40 0 40 40 0 40 0 0 40 0
40 80 0 80 0 0 40 0 40 40 0 40 0 0 40 0 40 40 0 40 0 0 -120 0 -120 40 0 40
0 0 -40 0 -40 40 0 40 0 0 -40 0 -40 160 0 160 0 0 40 0 40 40 0 40 0 0 40 0
40 40 0 40 0 0 40 0 40 40 0 40 0 0 -40 0 -40 40 0 40 0 0 40 0 40 40 0 40 0
0 80 0 80 40 0 40 0 0 120 0 120 -40 0 -40 0 0 -120 0 -120 -40 0 -40 0 0 -80
0 -80 -40 0 -40 0 0 40 0 40 -40 0 -40 0 0 960 0 960 80 0 80 0 0 -40 0 -40
80 0 80 0 0 40 0 40 40 0 40 0 0 -40 0 -40 80 0 80 0 0 40 0 40 40 0 40 0 0
-80 0 -80 -40 0 -40 0 0 -40 0 -40 -40 0 -40 0 0 -40 0 -40 -40 0 -40 0 0 -40
0 -40 -40 0 -40 0 0 40 0 40 -40 0 -40 0 0 -40 0 -40 40 0 40 0 0 -40 0 -40
40 0 40 0 0 40 0 40 40 0 40 0 0 40 0 40 40 0 40 0 0 -160 0 -160 -40 0 -40 0
0 -360 0 -360 -40 0 -40 0 0 -320 0 -320 40 0 40 0 0 -40 0 -40 40 0 40 0 0
-40 0 -40 200 0 200 0 0 -40 0 -40 40 0 40 0 0 -40 0 -40 80 0 80 0 0 40 0 40
40 0 40 0 0 120 0 120 -40 0 -40 0 0 40 0 40 -40 0 -40 0 0 40 0 40 -40 0 -40
0 0 160 0 160 40 0 40 0 0 40 0 40 40 0 40 0 0 120 0 120 -40 0 -40 0 0 40 0
40 -40 0 -40 0 0 40 0 40 -80 0 -80 0 0 -40 0 -40 -40 0 -40 0 0 320 0 320 40
0 40 0 0 280 0 280 -40 0 -40 0 0 80 0 80 -40 0 -40 0 0 40 0 40 -40 0 -40 0
0 80 0 80 80 0 80 0 0 40 0 40 80 0 80 0 0 40 0 40 40 0 40 0 0 40 0 40 40 0
40 0 0 40 0 40 40 0 40 0 0 40 0 40 -40 0 -40 0 0 40 0 40 40 0 40 0 0 40 0
40 -40 0 -40 0 0 40 0 40 -40 0 -40 0 0 160 0 160 40 0 40 0 0 200 0 200 40 0
40 0 0 320 0 320 -40 0 -40 0 0 40 0 40 -80 0 -80 0 0 -40 0 -40 -40 0 -40 0
0 -40 0 -40 -40 0 -40 0 0 -40 0 -40 -40 0 -40 0 0 -40 0 -40 -40 0 -40 0 0
-40 0 -40 -40 0 -40 0 0 -40 0 -40 -40 0 -40 0 0 -40 0 -40 -40 0 -40 0 0 40
0 40 -160 0 -160 0 0 -40 0 -40 -40 0 -40 0 0 40 0 40 -80 0 -80 0 0 40 0 40
-40 0 -40 0 0 40 0 40 -40 0 -40 0 0 40 0 40 -40 0 -40 0 0 40 0 40 -40 0 -40
0 0 40 0 40 -40 0 -40 0 0 40 0 40 -80 0 -80 0 0 -40z m160 -320 l0 -40 40 0
40 0 0 -40 0 -40 40 0 40 0 0 -40 0 -40 40 0 40 0 0 -80 0 -80 40 0 40 0 0
-40 0 -40 -40 0 -40 0 0 -40 0 -40 -40 0 -40 0 0 -40 0 -40 -40 0 -40 0 0 40
0 40 -40 0 -40 0 0 80 0 80 -40 0 -40 0 0 200 0 200 40 0 40 0 0 -40z m640
-640 l0 -40 40 0 40 0 0 -40 0 -40 -40 0 -40 0 0 -200 0 -200 40 0 40 0 0 -40
0 -40 -160 0 -160 0 0 -40 0 -40 200 0 200 0 0 40 0 40 80 0 80 0 0 -160 0
-160 40 0 40 0 0 160 0 160 80 0 80 0 0 40 0 40 40 0 40 0 0 200 0 200 -40 0
-40 0 0 40 0 40 40 0 40 0 0 40 0 40 80 0 80 0 0 -40 0 -40 40 0 40 0 0 -240
0 -240 80 0 80 0 0 -40 0 -40 -40 0 -40 0 0 -40 0 -40 40 0 40 0 0 -40 0 -40
-40 0 -40 0 0 -40 0 -40 -40 0 -40 0 0 -40 0 -40 -80 0 -80 0 0 -40 0 -40 -40
0 -40 0 0 40 0 40 -40 0 -40 0 0 -80 0 -80 -520 0 -520 0 0 40 0 40 -160 0
-160 0 0 40 0 40 40 0 40 0 0 40 0 40 40 0 40 0 0 40 0 40 -40 0 -40 0 0 40 0
40 -40 0 -40 0 0 40 0 40 80 0 80 0 0 40 0 40 40 0 40 0 0 -40 0 -40 80 0 80
0 0 40 0 40 40 0 40 0 0 240 0 240 40 0 40 0 0 40 0 40 120 0 120 0 0 -40z
m160 -320 l0 -40 -40 0 -40 0 0 40 0 40 40 0 40 0 0 -40z m400 0 l0 -40 -40 0
-40 0 0 40 0 40 40 0 40 0 0 -40z m-2400 -200 l0 -80 40 0 40 0 0 -40 0 -40
40 0 40 0 0 -80 0 -80 40 0 40 0 0 -160 0 -160 40 0 40 0 0 -120 0 -120 -40 0
-40 0 0 40 0 40 -80 0 -80 0 0 40 0 40 -40 0 -40 0 0 -40 0 -40 -40 0 -40 0 0
40 0 40 -40 0 -40 0 0 -40 0 -40 -40 0 -40 0 0 -80 0 -80 -40 0 -40 0 0 200 0
200 40 0 40 0 0 160 0 160 40 0 40 0 0 80 0 80 40 0 40 0 0 80 0 80 40 0 40 0
0 -80z m2400 -1320 l0 -40 -40 0 -40 0 0 40 0 40 40 0 40 0 0 -40z m-720
-1440 l0 -200 -40 0 -40 0 0 -120 0 -120 -40 0 -40 0 0 120 0 120 -40 0 -40 0
0 -120 0 -120 -40 0 -40 0 0 120 0 120 -40 0 -40 0 0 -80 0 -80 -40 0 -40 0 0
120 0 120 40 0 40 0 0 80 0 80 80 0 80 0 0 40 0 40 80 0 80 0 0 40 0 40 40 0
40 0 0 -200z m800 160 l0 -40 40 0 40 0 0 -80 0 -80 40 0 40 0 0 -40 0 -40
-40 0 -40 0 0 -120 0 -120 -40 0 -40 0 0 120 0 120 -40 0 -40 0 0 -120 0 -120
-40 0 -40 0 0 120 0 120 -40 0 -40 0 0 40 0 40 40 0 40 0 0 80 0 80 40 0 40 0
0 40 0 40 40 0 40 0 0 -40z m-1600 -160 l0 -40 40 0 40 0 0 40 0 40 40 0 40 0
0 -80 0 -80 -40 0 -40 0 0 -40 0 -40 -80 0 -80 0 0 -40 0 -40 -40 0 -40 0 0
-40 0 -40 -80 0 -80 0 0 -40 0 -40 -40 0 -40 0 0 -40 0 -40 -40 0 -40 0 0 40
0 40 -40 0 -40 0 0 40 0 40 40 0 40 0 0 40 0 40 40 0 40 0 0 80 0 80 120 0
120 0 0 40 0 40 40 0 40 0 0 40 0 40 40 0 40 0 0 -40z m1920 -200 l0 -80 40 0
40 0 0 -40 0 -40 40 0 40 0 0 -40 0 -40 -40 0 -40 0 0 -40 0 -40 -40 0 -40 0
0 40 0 40 -40 0 -40 0 0 40 0 40 -40 0 -40 0 0 40 0 40 40 0 40 0 0 80 0 80
40 0 40 0 0 -80z"/>
<path d="M2560 3320 l0 -40 40 0 40 0 0 40 0 40 -40 0 -40 0 0 -40z"/>
<path d="M3600 3320 l0 -40 -80 0 -80 0 0 -40 0 -40 80 0 80 0 0 40 0 40 80 0
80 0 0 40 0 40 -80 0 -80 0 0 -40z"/>
<path d="M2800 3080 l0 -40 40 0 40 0 0 -40 0 -40 -40 0 -40 0 0 -40 0 -40 40
0 40 0 0 40 0 40 80 0 80 0 0 -40 0 -40 80 0 80 0 0 40 0 40 -80 0 -80 0 0 40
0 40 -80 0 -80 0 0 40 0 40 -40 0 -40 0 0 -40z"/>
<path d="M3440 3080 l0 -40 -40 0 -40 0 0 -40 0 -40 -40 0 -40 0 0 -40 0 -40
40 0 40 0 0 40 0 40 40 0 40 0 0 40 0 40 40 0 40 0 0 40 0 40 -40 0 -40 0 0
-40z"/>
<path d="M1520 280 l0 -40 -40 0 -40 0 0 -40 0 -40 40 0 40 0 0 40 0 40 40 0
40 0 0 40 0 40 -40 0 -40 0 0 -40z"/>
<path d="M3760 280 l0 -40 40 0 40 0 0 -40 0 -40 40 0 40 0 0 40 0 40 -40 0
-40 0 0 40 0 40 -40 0 -40 0 0 -40z"/>
<path d="M2960 1640 l0 -40 40 0 40 0 0 40 0 40 -40 0 -40 0 0 -40z"/>
<path d="M3120 1320 l0 -40 -40 0 -40 0 0 -40 0 -40 40 0 40 0 0 40 0 40 40 0
40 0 0 40 0 40 -40 0 -40 0 0 -40z"/>
</g>
</svg>
